HIERARCHY
ROOT Hips
{
	OFFSET 0.000000 0.000000 0.000000 
	CHANNELS 6 Xposition Yposition Zposition Zrotation Xrotation Yrotation
	JOINT Spine
	{
		OFFSET -0.000000 0.081317 0.000000 
		CHANNELS 3 Zrotation Xrotation Yrotation
		JOINT Spine1
		{
			OFFSET -0.000000 0.225200 0.000000 
			CHANNELS 3 Zrotation Xrotation Yrotation
			JOINT Neck
			{
				OFFSET -0.000000 0.224275 0.020389 
				CHANNELS 3 Zrotation Xrotation Yrotation
				JOINT Head
				{
					OFFSET -0.000000 0.138833 -0.019833 
					CHANNELS 3 Zrotation Xrotation Yrotation
					End Site
					{
						OFFSET -0.000000 0.198333 0.000000 
					}
				}
			}
			JOINT LeftShoulder
			{
				OFFSET 0.039732 0.208237 -0.000812 
				CHANNELS 3 Zrotation Xrotation Yrotation
				JOINT LeftArm
				{
					OFFSET 0.110955 0.000000 0.000000 
					CHANNELS 3 Zrotation Xrotation Yrotation
					JOINT LeftForeArm
					{
						OFFSET 0.324523 0.000000 0.000000 
						CHANNELS 3 Zrotation Xrotation Yrotation
						JOINT LeftHand
						{
							OFFSET 0.302601 0.000000 0.000000 
							CHANNELS 3 Zrotation Xrotation Yrotation
							End Site
							{
								OFFSET 0.148750 0.000000 0.000000 
							}
						}
					}
				}
			}
			JOINT RightShoulder
			{
				OFFSET -0.039598 0.208237 -0.000812 
				CHANNELS 3 Zrotation Xrotation Yrotation
				JOINT RightArm
				{
					OFFSET -0.110955 0.000000 0.000000 
					CHANNELS 3 Zrotation Xrotation Yrotation
					JOINT RightForeArm
					{
						OFFSET -0.324523 0.000000 0.000000 
						CHANNELS 3 Zrotation Xrotation Yrotation
						JOINT RightHand
						{
							OFFSET -0.302601 0.000000 0.000000 
							CHANNELS 3 Zrotation Xrotation Yrotation
							End Site
							{
								OFFSET -0.148750 0.000000 0.000000 
							}
						}
					}
				}
			}
		}
	}
	JOINT LeftUpLeg
	{
		OFFSET 0.099167 0.000000 0.000000 
		CHANNELS 3 Zrotation Xrotation Yrotation
		JOINT LeftLeg
		{
			OFFSET -0.000000 -0.380753 0.000000 
			CHANNELS 3 Zrotation Xrotation Yrotation
			JOINT LeftFoot
			{
				OFFSET -0.000000 -0.440093 0.000000 
				CHANNELS 3 Zrotation Xrotation Yrotation
				JOINT LeftToeBase
				{
					OFFSET -0.000000 -0.064458 0.148750 
					CHANNELS 3 Zrotation Xrotation Yrotation
					End Site
					{
						OFFSET -0.000000 0.000000 0.039667 
					}
				}
			}
		}
	}
	JOINT RightUpLeg
	{
		OFFSET -0.099167 0.000000 0.000000 
		CHANNELS 3 Zrotation Xrotation Yrotation
		JOINT RightLeg
		{
			OFFSET -0.000000 -0.380753 0.000000 
			CHANNELS 3 Zrotation Xrotation Yrotation
			JOINT RightFoot
			{
				OFFSET -0.000000 -0.440093 0.000000 
				CHANNELS 3 Zrotation Xrotation Yrotation
				JOINT RightToeBase
				{
					OFFSET -0.000000 -0.064458 0.148750 
					CHANNELS 3 Zrotation Xrotation Yrotation
					End Site
					{
						OFFSET -0.000000 0.000000 0.039667 
					}
				}
			}
		}
	}
}
MOTION
Frames: 12
Frame Time: 0.040185
0.912215 0.908486 1.501330 -0.742334 -1.308867 38.039066 8.978429 -14.533724 8.202457 -8.562840 23.403528 4.132969 4.514161 15.153253 -8.886504 2.388103 -18.136530 -8.584442 -14.518260 7.002548 -1.948581 -57.056824 -5.982814 -4.603937 -7.436502 32.284386 -22.550648 20.010017 27.950756 -19.787781 11.986058 0.941006 3.658098 65.872238 58.237148 -8.987827 -26.191723 -11.736331 35.835274 12.170238 -3.514786 -3.133358 -3.542438 -10.650012 16.371216 -0.906284 1.360155 21.553717 24.177011 26.971581 -49.088249 0.000000 0.000000 0.000000 5.315518 12.940588 -15.109762 -0.067416 18.523003 10.409624 4.194755 19.073124 -14.171944 0.000000 0.000000 0.000000 
0.931326 0.910615 1.525633 -0.089912 -1.591835 37.396255 8.174885 -14.537219 6.396725 -8.435583 23.551708 3.551169 4.708528 15.001729 -8.363359 2.008670 -17.421896 -8.172953 -14.139513 7.032521 -2.236557 -57.657825 -5.894882 -5.678611 -6.696151 31.832369 -23.098873 21.083614 27.377995 -19.967861 12.079270 0.947171 3.587846 66.085152 58.563152 -9.508717 -26.422676 -12.304905 36.364075 11.905960 -3.868181 -3.108906 -3.401943 -7.700008 20.445665 -1.587559 1.363447 17.352213 22.322744 25.301394 -47.577175 0.000000 0.000000 0.000000 3.024946 9.735914 -13.665895 0.258586 26.972307 9.657026 1.045909 20.810371 -11.145793 0.000000 0.000000 0.000000 
0.945943 0.911983 1.544391 0.543377 -0.890846 37.114323 5.913458 -14.526934 3.768437 -7.031039 23.128637 2.449309 4.451733 15.376970 -7.719952 1.545833 -17.944548 -7.611497 -14.004436 6.868599 -2.839242 -57.918427 -4.064803 -6.737604 -5.022552 30.595219 -25.322741 22.454847 26.093632 -19.879000 11.749027 0.852216 3.530236 65.854988 58.281918 -9.658954 -26.539299 -12.822365 36.970428 11.557948 -4.189091 -3.123398 -3.984653 -6.282944 23.502342 -1.942585 1.590580 15.034261 21.669378 24.265800 -48.010544 0.000000 0.000000 0.000000 0.509714 4.915618 -12.699194 0.165372 35.552090 9.425638 -0.484958 17.687462 -10.149356 0.000000 0.000000 0.000000 
0.959134 0.912760 1.562252 0.901465 -0.157764 36.782265 3.314792 -14.698554 1.100111 -4.597766 22.775858 1.153152 3.972891 15.751259 -7.193878 1.077665 -18.234829 -7.180813 -14.328160 6.528751 -3.794365 -57.482979 -1.710784 -8.221145 -3.445294 29.442984 -27.051714 21.733902 25.394495 -19.255840 11.338946 0.304027 3.148486 66.099670 57.704430 -10.525244 -26.679689 -12.850327 37.156029 11.478276 -4.095008 -2.907729 -4.616687 -4.452516 23.961969 -2.366324 0.248494 18.907928 22.732517 22.678852 -52.753532 0.000000 0.000000 0.000000 -1.650790 0.029698 -12.471581 0.094783 40.817600 8.568241 -2.140842 14.938168 -10.047584 0.000000 0.000000 0.000000 
0.971130 0.913938 1.579608 0.732525 0.300244 36.102600 1.444627 -14.076645 -1.907514 -2.389318 20.856951 -0.253853 3.483957 16.969122 -6.423625 0.582467 -18.247839 -6.483669 -14.509261 6.446995 -4.189269 -56.807728 0.655437 -9.544550 -2.764540 28.359474 -27.805744 22.602034 24.222651 -19.473576 11.126866 0.735060 3.203909 66.139618 56.813419 -11.193262 -26.914179 -12.336309 36.874687 12.498652 -3.553293 -2.597288 -4.669124 -3.418886 23.180315 -2.580425 0.522105 15.112645 19.513369 22.445055 -46.175442 0.000000 0.000000 0.000000 -2.936926 -4.629833 -12.180191 -0.360666 42.724041 8.904034 -3.129107 12.860719 -9.892993 0.000000 0.000000 0.000000 
0.982063 0.916094 1.596208 0.243465 0.952371 34.978848 -0.258633 -13.896768 -4.456039 0.070677 19.703478 -1.485745 3.308976 17.054298 -5.732396 -0.388800 -17.620844 -6.049030 -14.615935 5.968899 -4.698411 -56.353287 1.269571 -11.366136 -2.440973 28.687477 -27.858133 21.898195 24.764740 -19.383806 10.807005 0.612958 2.715561 67.018120 56.781811 -12.380469 -27.587534 -12.471857 36.319885 13.178072 -3.563535 -2.104953 -4.667180 -2.587909 22.097910 -1.965935 -0.262742 21.327314 20.111637 19.652113 -52.068989 0.000000 0.000000 0.000000 -3.530446 -9.300780 -10.748137 -0.405286 41.649120 9.322025 -3.381545 12.099890 -10.726086 0.000000 0.000000 0.000000 
0.991242 0.917939 1.611136 -0.422138 2.139330 33.632778 -2.221507 -14.085768 -7.072528 2.737392 18.896446 -2.720557 2.989576 16.983509 -4.844139 -1.166084 -17.362211 -5.353609 -14.637608 5.477978 -5.192939 -55.994354 1.368976 -12.966106 -0.691341 29.514856 -29.198486 17.396011 27.015493 -17.238047 10.415870 0.485745 2.682805 67.321358 56.425663 -13.112579 -27.657595 -12.234332 36.247890 14.333655 -3.323442 -1.992118 -4.874386 -2.838305 21.409904 -1.623793 -0.376388 22.964092 19.541790 19.624413 -51.940655 0.000000 0.000000 0.000000 -3.905789 -14.853387 -8.986152 -0.370864 39.773396 7.204058 -3.951637 12.145811 -7.847186 0.000000 0.000000 0.000000 
1.000119 0.919051 1.626907 -0.798312 3.241010 32.156048 -4.554487 -13.948540 -9.482058 5.764978 18.214985 -3.899313 2.666374 17.260349 -3.897622 -1.851411 -17.891720 -4.570953 -14.518820 5.342174 -6.054328 -55.657322 2.035234 -14.284570 -0.204080 27.845985 -29.944763 19.143267 25.177202 -17.228277 10.081367 0.570495 2.571797 67.411461 56.316906 -13.681521 -26.317263 -13.237273 36.895355 10.309897 -4.587869 -2.126702 -5.428144 -3.203931 21.381605 -1.330160 -0.399356 24.963228 20.769747 20.717308 -50.496136 0.000000 0.000000 0.000000 -3.799798 -19.617586 -7.542744 -0.494329 36.391773 6.784139 -5.789494 14.426390 -7.900568 0.000000 0.000000 0.000000 
1.008415 0.919260 1.643574 -1.084309 4.138716 31.015171 -6.869398 -13.786533 -11.987606 8.677672 18.093315 -5.102694 2.424657 17.362986 -2.881725 -2.399481 -18.369820 -3.685245 -14.405143 5.189388 -6.589129 -55.261669 1.501569 -15.975862 -0.369585 27.520210 -30.284184 20.344843 24.470100 -18.196865 9.871436 0.629535 2.684872 67.431519 55.922871 -14.186367 -26.340191 -13.008378 36.912231 11.253955 -4.361630 -2.156531 -5.479792 -2.775963 21.536404 -1.303968 -1.061563 25.919277 20.750704 21.362690 -51.625637 0.000000 0.000000 0.000000 -3.367171 -23.479713 -6.738295 -0.510263 31.589331 7.485244 -3.578189 17.053993 -10.245102 0.000000 0.000000 0.000000 
1.017511 0.919093 1.661813 -1.112268 4.776398 30.188530 -9.050269 -13.436168 -14.307260 11.432740 18.174856 -6.247710 2.007201 17.434311 -1.969518 -2.851491 -18.686878 -2.882017 -14.647948 4.797003 -7.282371 -54.651928 1.385152 -16.999701 -0.659603 26.804937 -30.862967 26.451715 22.104279 -20.954569 9.553461 0.397606 2.613189 67.865471 55.505264 -14.898227 -26.047226 -12.727807 36.914955 11.235955 -4.177010 -2.157200 -5.611187 -2.041714 23.144693 -1.091776 -1.015717 26.691408 20.492596 20.412958 -54.266243 0.000000 0.000000 0.000000 -2.775637 -23.478296 -6.675372 -0.207109 22.180687 9.400785 -1.551038 18.597330 -11.224439 0.000000 0.000000 0.000000 
1.027720 0.918296 1.681626 -0.880590 5.240594 29.486929 -10.654666 -13.029484 -16.139786 13.026897 17.885555 -7.031966 2.232419 18.476728 -1.253904 -3.655385 -19.449173 -2.378266 -14.658762 4.957697 -8.183212 -53.871330 2.336023 -17.447073 0.046205 25.837997 -32.820812 30.155840 19.340334 -25.716877 9.524093 0.713827 2.422616 68.167320 54.991051 -15.336732 -25.622274 -12.474797 37.013607 11.205836 -4.041079 -2.142068 -5.951493 -0.741762 22.148623 -1.297602 -1.184342 25.712353 18.846153 20.700800 -50.858753 0.000000 0.000000 0.000000 -2.156903 -25.124298 -7.131736 -0.146502 17.092606 11.809946 1.168973 21.623327 -15.336974 0.000000 0.000000 0.000000 
1.038189 0.916071 1.702935 -0.469622 5.399341 28.979998 -11.626411 -12.761068 -17.337887 13.314313 18.324015 -7.500673 3.380073 18.255911 -0.654201 -4.688881 -19.217041 -2.045939 -14.137373 4.569310 -8.713560 -53.588703 3.076513 -18.258995 0.599560 24.348064 -33.956203 22.616306 21.346392 -17.072248 10.255517 0.451434 1.963646 68.953224 54.612572 -16.532806 -25.657427 -12.606963 37.492989 11.293063 -4.036174 -2.068560 -6.128979 0.538432 23.488369 -1.307158 -0.079642 21.324812 15.794563 19.865860 -46.323650 0.000000 0.000000 0.000000 -1.278213 -25.615520 -7.121124 -0.336596 12.985479 13.288288 2.469153 21.603153 -17.452440 0.000000 0.000000 0.000000 
